<svg width="214" height="266" viewBox="0 0 214 266" fill="none" xmlns="http://www.w3.org/2000/svg">
<path d="M6 13.7054C6 13.7054 22.0156 -0.684163 58.7344 16.2412C95.4531 33.1665 102.484 34.5134 113.813 34.5134C125.141 34.5134 138.031 28.7931 161.469 16.0991C184.906 3.40513 206 14.6937 206 14.6937V57.4303C206 57.4303 183.734 52.3527 161.469 64.6236C139.203 76.8944 126.313 82.8183 113.813 82.3953C101.313 81.9723 88.8125 77.727 58.7344 64.6236C28.6563 51.5202 12.6406 64.6236 12.6406 64.6236V105.245C12.6406 105.245 34.5156 97.2053 58.7344 109.053C82.9532 120.901 102.484 125.132 113.813 125.132C125.141 125.132 132.953 123.44 161.469 109.053C189.984 94.6662 205.219 101.436 205.219 101.436V147.981C205.219 147.981 185.688 142.057 161.469 155.018C137.25 167.978 125.922 169.984 113.813 169.984C101.703 169.984 85.2968 165.974 58.7344 151.633C32.1719 137.291 12.6406 152.213 12.6406 152.213V189.448C12.6406 189.448 28.6563 180.078 58.7344 194.464C88.8125 208.851 106 213.506 113.813 213.506C121.625 213.506 131.781 216.891 161.469 199.542C191.156 182.194 206 189.448 206 189.448L205.219 232.123C205.219 232.123 192.328 226.887 161.469 242.764C130.609 258.64 119.281 257.996 113.813 257.996C108.344 257.996 95.4531 257.573 58.7344 239.378C22.0156 221.184 6 232.123 6 232.123" stroke="#67BAD8" stroke-width="15"/>
</svg>
